{"title":"The Wolf of Wall Street (2013) BDRip [720p] Dual Audio [Line]","uid":9871034,"size":12024555651,"categoryP":"video","categoryS":"hd___movies","magnet":"?xt=urn:btih:f999b0e92091712f6a08f5653c7be82d9db80622&amp;dn=The+Wolf+of+Wall+Street+%282013%29+BDRip+%5B720p%5D+Dual+Audio+%5BLine%5D&amp;tr=udp%3A%2F%2Ftracker.openbittorrent.com%3A80&amp;tr=udp%3A%2F%2Fopen.demonii.com%3A1337&amp;tr=udp%3A%2F%2Ftracker.coppersurfer.tk%3A6969&amp;tr=udp%3A%2F%2Fexodus.desync.com%3A6969","seeders":11,"leechers":1,"uploader":"darkj6","files":-1,"time":1396407372,"description":" ______   _______  ______    ___   _      ___  --------|\n|      | |   _   ||    _ |  |   | | |    |   ||   |----|    \n|  _    ||  |_|  ||   | ||  |   |_| |    |   ||   |___ \n| | |   ||       ||   |_||_ |      _|    |   ||    _  |\n| |_|   ||       ||    __  ||     |_  ___|   ||   | | |\n|       ||   _   ||   |  | ||    _  ||       ||   |_| |\n|______| |__| |__||___|  |_||___| |_||_______||_______|\n\n Film description: Jordan Belfort founded one of the largest brokerages in 1987, but ten years later he was convicted of money laundering and a number of other financial crimes. He coped with drug and alcohol addiction, generated during the manipulation on Wall Street, has written two books and now lectures on how to achieve success\n &lt;a href=&quot;\nhttp://www.imdb.com/title/tt0993846/&quot; rel=&quot;nofollow&quot; target=&quot;_NEW&quot;&gt;\nhttp://www.imdb.com/title/tt0993846/&lt;/a&gt;\n\nSubtitles: switchable \n\nSubtitle Language: Russian, English (Fill, SDH), French, Spanish\n\nWorld Premiere Date : December 17, 2013\nRussian premiere date : February 6, 2014 , Â«WestÂ»\n\nDuration: 2:59:49\nVideo Quality : BDRip 720p [GORESEWAGE]\n\nVideo codec : MPEG- 4 AVC/H.264\n\nVideo Bitrate : ~ 5800 kbit / s\n\nFrame Size: 1280 x 534 (2.397) at 23.976 fps: 0.354 Bits / Pixel\n\nAudio # 1 : AC3 384 kbit / s (2ch), 48,0 kHz , 16 bit [ Russian , Dubbing &quot; Pythagoras &quot; ]\n\nAudio # 2 : AC3 640 kbit / s (6ch), 48,0 kHz , 16 bit [ Russian , DVO - track obtained by isolating a &quot; clear voice &quot;]\n\nAudio # 3 : AC3 192 kbit / s (2ch), 48,0 kHz , 16 bit [ Russian , VO D. Denshikov ]\n\n# 4 Audio : DTS 1510 kbit / s (6ch), 48,0 kHz, 24 bit [English]\n\n\nAudio # 5 : AC3 384 kbit / s (6ch), 48,0 kHz , 16 bit [English - Descrirtion ]\nOptional: Keep the original as a chapter on Blu-ray\n\n\nFull name : F:  Volk.s.Uoll-strit.2013.D.BDRip.720p.NNM-CLUB.mkv\nFormat : Matroska\nFormat version: Version 2\nFile Size: 11.2 GB\nDuration: 2 h 59 m\nOverall bit rate: 8913 kbit / s\nMovie Title : The Wolf of Wall Street 2013 BDRip 720p GORESEWAGE\nEncoded date : UTC 2014-04-01 02:26:00\nWriting application : mkvmerge v2.9.9 ('Tutu') built on Nov 25 2009 21:13:32\nWriting library : libebml v0.7.9 + libmatroska v0.8.1\nAttachment: Yes\n\nvideo\nIdentifier : 1\nFormat : AVC\nFormat / Info : Advanced Video Codec\nFormat profile : &lt;a class=&quot;__cf_email__&quot; href=&quot;/cdn-cgi/l/email-protection&quot; data-cfemail=&quot;642c0d030c2428504a55&quot;&gt;[email&amp;#160;protected]&lt;/a&gt;&lt;script cf-hash='f9e31' type=&quot;text/javascript&quot;&gt;\n/* &lt;![CDATA[ */!function(){try{var t=&quot;currentScript&quot;in document?document.currentScript:function(){for(var t=document.getElementsByTagName(&quot;script&quot;),e=t.length;e--;)if(t[e].getAttribute(&quot;cf-hash&quot;))return t[e]}();if(t&amp;&amp;t.previousSibling){var e,r,n,i,c=t.previousSibling,a=c.getAttribute(&quot;data-cfemail&quot;);if(a){for(e=&quot;&quot;,r=parseInt(a.substr(0,2),16),n=2;a.length-n;n+=2)i=parseInt(a.substr(n,2),16)^r,e+=String.fromCharCode(i);e=document.createTextNode(e),c.parentNode.replaceChild(e,c)}}}catch(u){}}();/* ]]&gt; */&lt;/script&gt;\nParameter format CABAC : Yes\nParameter format ReFrames : 12 frames\nCodec ID : V_MPEG4/ISO/AVC\nDuration: 2 h 59 m\nBitrate: 5800 kbit / s\nWidth: 1280 pixels\nHeight: 534 pixels\nAspect Ratio: 2,40:1\nFrame rate mode : Constant\nFrame rate: 23.976 frames / sec\nColor space : YUV\nSubsampling: 4:2:0\nBit depth : 8 bits\nScan type: Progressive\nBits / (Pixel * Frame) : 0.354\nStream size : 7.07 GB (63%)\nLanguage : English\nDefault: No\nForced: No\n\nAudio # 1\nID number: 2\nFormat : AC- 3\nFormat / Info : Audio Coding 3\nExpansion mode : CM (complete main)\nParameter format Endianness : Big\nCodec ID : A_AC3\nDuration: 2 h 59 m\nBit rate mode : Constant\nBitrate: 384 kbit / s\nChannels : 2 channels\nPorting : Front: LR\nSampling rate: 48.0 KHz\nBit Depth : 16-bit\nCompression mode: Lossy\nStream size : 494 MiB ( 4 %)\nTitle : AC3.384.Kbps (2ch) Russian ( Dubbed &quot; Pythagoras &quot;)\nLanguage : Russian\nDefault: Yes\nForced: No\n\nAudio # 2\nID number: 3\nFormat : AC- 3\nFormat / Info : Audio Coding 3\nExpansion mode : CM (complete main)\nParameter format Endianness : Big\nCodec ID : A_AC3\nDuration: 2 h 59 m\nBit rate mode : Constant\nBitrate: 640 kbit / s\nChannels: 6 channels\nPorting : Front: LCR, Side: LR, LFE\nSampling rate: 48.0 KHz\nBit Depth : 16-bit\nCompression mode: Lossy\nStream size : 823 Mbyte (7 %)\nTitle : AC3.640.Kbps (6ch) Russian (DVO Â« Pirates&quot; )\nLanguage : Russian\nDefault: No\nForced: No\n\nAudio # 3\nID number: 4\nFormat : AC- 3\nFormat / Info : Audio Coding 3\nExpansion mode : CM (complete main)\nParameter format Endianness : Big\nCodec ID : A_AC3\nDuration: 2 h 59 m\nBit rate mode : Constant\nBitrate: 192 kbit / s\nChannels : 2 channels\nPorting : Front: LR\nSampling rate: 48.0 KHz\nBit Depth : 16-bit\nCompression mode: Lossy\nStream size : 247 MB ( 2% )\nTitle : AC3.192.Kbps (2ch) Russian (VO D.Denschikov )\nLanguage : Russian\nDefault: No\nForced: No\n\nAudio # 4\nIdentifier : 5\nFormat : DTS\nFormat / Info : Digital Theater Systems\nMode: 16\nParameter format Endianness : Big\nCodec ID : A_DTS\nDuration: 2 h 59 m\nBit rate mode : Constant\nBitrate: 1509 kbit / s\nChannels: 6 channels\nPorting : Front: LCR, Side: LR, LFE\nSampling rate: 48.0 KHz\nBit Depth : 24-bit\nCompression mode: Lossy\nVideo delay : 11 ms .\nStream size : 1.90 GB (17 %)\nTitle : DTS.1509.Kbps (6ch) English\nLanguage : English\nDefault: No\nForced: No\n\nAudio # 5\nID number: 6\nFormat : AC- 3\nFormat / Info : Audio Coding 3\nExpansion mode : CM (complete main)\nParameter format Endianness : Big\nCodec ID : A_AC3\nDuration: 2 h 59 m\nBit rate mode : Constant\nBitrate: 384 kbit / s\nChannels: 6 channels\nPorting : Front: LCR, Side: LR, LFE\nSampling rate: 48.0 KHz\nBit Depth : 16-bit\nCompression mode: Lossy\nStream size : 494 MiB ( 4 %)\nTitle : AC3.384.Kbps (6ch) English Descriptive\nLanguage : English\nDefault: No\nForced: No\n\nText # 1\nIdentifier : 7\nFormat : UTF- 8\nCodec ID : S_TEXT/UTF8\nCodec ID / Info : UTF- 8 Plain Text\nTitle : Russian (Full Notabenoid)\nLanguage : Russian\nDefault: No\nForced: No\n\nText # 2\nID number: 8\nFormat : UTF- 8\nCodec ID : S_TEXT/UTF8\nCodec ID / Info : UTF- 8 Plain Text\nTitle : English (Full)\nLanguage : English\nDefault: No\nForced: No\n\nText # 3\nID number: 9\nFormat : UTF- 8\nCodec ID : S_TEXT/UTF8\nCodec ID / Info : UTF- 8 Plain Text\nTitle : English (SDH)\nLanguage : English\nDefault: No\nForced: No\n\nText # 4\nID number: 10\nFormat : UTF- 8\nCodec ID : S_TEXT/UTF8\nCodec ID / Info : UTF- 8 Plain Text\nTitle : French (Full)\nLanguage : French\nDefault: No\nForced: No\n\nText # 5\nID number: 11\nFormat : UTF- 8\nCodec ID : S_TEXT/UTF8\nCodec ID / Info : UTF- 8 Plain Text\nTitle : Spanish (Full)\nLanguage : Spanish\nDefault: No\nForced: No\n\nmenu\n00:00:00.000: en: G01\n00:07:55.934: en: G02\n00:14:17.857: en: G03\n00:21:31.415: en: G04\n00:32:08.093: en: G05\n00:40:14.495: en: G06\n00:48:33.577: en: G07\n00:55:21.777: en: G08\n01:01:56.046: en: G09\n01:07:00.475: en: G10\n01:11:28.910: en: G11\n01:19:49.868: en: G12\n01:29:06.883: en: G13\n01:37:47.403: en: G14\n01:45:11.931: en: G15\n01:54:39.998: en: G16\n02:03:20.184: en: G17\n02:07:28.015: en: G18\n02:17:12.850: en: G19\n02:25:25.467: en: G20\n02:32:08.619: en: G21\n02:36:38.723: en: G22\n02:44:19.266: en: G23\n02:53:04.291: en: G24\n &lt;a href=&quot;\nhttp://i2.imageban.ru/out/2014/04/01/ac982854ce267411de5ad1006a48a318.png&quot; rel=&quot;nofollow&quot; target=&quot;_NEW&quot;&gt;\nhttp://i2.imageban.ru/out/2014/04/01/ac982854ce267411de5ad1006a48a318.png&lt;/a&gt;\n &lt;a href=&quot;\nhttp://i2.imageban.ru/out/2014/04/01/198fd4801c2ec473de490586c885505b.png&quot; rel=&quot;nofollow&quot; target=&quot;_NEW&quot;&gt;\nhttp://i2.imageban.ru/out/2014/04/01/198fd4801c2ec473de490586c885505b.png&lt;/a&gt;\n &lt;a href=&quot;\nhttp://i3.imageban.ru/out/2014/04/01/e6ec52fad9f10c4ec8750ca7e9c4207f.png&quot; rel=&quot;nofollow&quot; target=&quot;_NEW&quot;&gt;\nhttp://i3.imageban.ru/out/2014/04/01/e6ec52fad9f10c4ec8750ca7e9c4207f.png&lt;/a&gt;\n &lt;a href=&quot;\nhttp://i3.imageban.ru/out/2014/04/01/2e385f81ff646ca4dfd72315abc4db9d.png&quot; rel=&quot;nofollow&quot; target=&quot;_NEW&quot;&gt;\nhttp://i3.imageban.ru/out/2014/04/01/2e385f81ff646ca4dfd72315abc4db9d.png&lt;/a&gt;\n &lt;a href=&quot;\nhttp://i4.imageban.ru/out/2014/04/01/17ea69e2fd1c357d54f443f332047f18.png&quot; rel=&quot;nofollow&quot; target=&quot;_NEW&quot;&gt;\nhttp://i4.imageban.ru/out/2014/04/01/17ea69e2fd1c357d54f443f332047f18.png&lt;/a&gt;\n &lt;a href=&quot;\nhttp://i2.imageban.ru/out/2014/04/01/b7d05dad630bd02c70f0fc514aac18ab.png&quot; rel=&quot;nofollow&quot; target=&quot;_NEW&quot;&gt;\nhttp://i2.imageban.ru/out/2014/04/01/b7d05dad630bd02c70f0fc514aac18ab.png&lt;/a&gt;\n &lt;a href=&quot;\nhttp://i4.imageban.ru/out/2014/04/01/81b4e162ca0a9f4ab69e3c4b37f20412.png&quot; rel=&quot;nofollow&quot; target=&quot;_NEW&quot;&gt;\nhttp://i4.imageban.ru/out/2014/04/01/81b4e162ca0a9f4ab69e3c4b37f20412.png&lt;/a&gt;\n &lt;a href=&quot;\nhttp://i4.imageban.ru/out/2014/04/01/f4a5755dd960d733de8bca5b6f30b8f2.png&quot; rel=&quot;nofollow&quot; target=&quot;_NEW&quot;&gt;\nhttp://i4.imageban.ru/out/2014/04/01/f4a5755dd960d733de8bca5b6f30b8f2.png&lt;/a&gt;\n &lt;a href=&quot;\nhttp://i4.imageban.ru/out/2014/04/01/c59217a1378040e862f53179fedff23d.png&quot; rel=&quot;nofollow&quot; target=&quot;_NEW&quot;&gt;\nhttp://i4.imageban.ru/out/2014/04/01/c59217a1378040e862f53179fedff23d.png&lt;/a&gt;\n\n\n","torrent":{"xt":"urn:btih:f999b0e92091712f6a08f5653c7be82d9db80622","amp;dn":"The+Wolf+of+Wall+Street+%282013%29+BDRip+%5B720p%5D+Dual+Audio+%5BLine%5D","amp;tr":["udp%3A%2F%2Ftracker.openbittorrent.com%3A80","udp%3A%2F%2Fopen.demonii.com%3A1337","udp%3A%2F%2Ftracker.coppersurfer.tk%3A6969","udp%3A%2F%2Fexodus.desync.com%3A6969"],"infoHash":"f999b0e92091712f6a08f5653c7be82d9db80622","infoHashBuffer":{"type":"Buffer","data":[249,153,176,233,32,145,113,47,106,8,245,101,60,123,232,45,157,184,6,34]},"announce":[],"urlList":[]}}